# xmcd CD database file generated by OrangeCD 5.2
#
# Track frame offsets:
#	150
#	19420
#	36775
#	71945
#	90272
#	111215
#	128652
#	149967
#	173110
#	191932
#	211240
#	225350
#	242327
#
# Disc length: 3487 seconds
#
# Revision: 2
# Processed by: cddbd v1.5.1PL0 Copyright (c) Steve Scherf et al.
# Submitted via: OrangeCD 5.2
#
DISCID=b70d9d0d
DTITLE=Tom Pacheco - Luck Of Angels
DYEAR=1994
DGENRE=Country
TTITLE0=Searching For The Sixties
TTITLE1=The Best Kept Secret In Youngstown Ohio
TTITLE2=They're All Human
TTITLE3=Oklahoma Plains
TTITLE4=Tina Teresa
TTITLE5=Tennessee Stars
TTITLE6=Reverend Jake
TTITLE7=Out Of The Ashes
TTITLE8=Beautiful Moments
TTITLE9=Let The Winds Of Heaven Dance Between Us
TTITLE10=Cell Block One
TTITLE11=Rosalie
TTITLE12=Robert and Ramona
EXTD=
EXTT0=
EXTT1=
EXTT2=
EXTT3=
EXTT4=
EXTT5=
EXTT6=
EXTT7=
EXTT8=
EXTT9=
EXTT10=
EXTT11=
EXTT12=
PLAYORDER=
